<svg width="75" height="74" viewBox="0 0 75 74" fill="none" xmlns="http://www.w3.org/2000/svg">
<path d="M64.9742 46.7265C68.8944 48.1078 71.0141 52.4636 68.8662 56.0221C65.6827 61.2962 61.205 65.724 55.8066 68.8545C48.2219 73.2529 39.3172 74.802 30.6927 73.2236C22.0682 71.6451 14.2894 67.0425 8.75421 60.2429C3.219 53.4433 0.290275 44.8925 0.494356 36.1271C0.698437 27.3618 4.02194 18.9565 9.86761 12.4219C15.7133 5.8873 23.6979 1.65172 32.3865 0.476339C41.0751 -0.699039 49.898 1.26285 57.2698 6.00944C62.5166 9.38781 66.7835 14.0192 69.718 19.4358C71.6979 23.0904 69.3778 27.3428 65.3976 28.5401C61.4173 29.7374 57.3075 27.354 54.8333 24.0142C53.2797 21.9171 51.3499 20.0998 49.1212 18.6648C44.7612 15.8574 39.543 14.6971 34.4043 15.3923C29.2655 16.0874 24.5431 18.5925 21.0858 22.4573C17.6284 26.3222 15.6628 31.2933 15.5421 36.4775C15.4214 41.6617 17.1535 46.7189 20.4273 50.7405C23.701 54.762 28.3017 57.4841 33.4025 58.4177C38.5034 59.3513 43.7699 58.4351 48.2558 55.8337C50.5489 54.5039 52.5611 52.7784 54.2106 50.7559C56.8376 47.5349 61.054 45.3453 64.9742 46.7265Z" fill="white"/>
<path d="M51.2359 38.0573C53.2082 38.2094 54.7192 39.9508 54.1701 41.8512C53.3563 44.668 51.8432 47.2551 49.7471 49.3593C46.8021 52.3156 42.8993 54.1246 38.74 54.4613C34.5807 54.7981 30.4377 53.6404 27.0555 51.1963C23.6732 48.7522 21.2736 45.182 20.2876 41.1273C19.3017 37.0725 19.7942 32.7991 21.6767 29.0749C23.5591 25.3508 26.708 22.4201 30.5575 20.8094C34.4071 19.1988 38.7048 19.0139 42.6784 20.288C45.5067 21.1947 48.0387 22.7983 50.055 24.9269C51.4154 26.3631 50.8726 28.6038 49.1903 29.6445C47.508 30.6853 45.325 30.0958 43.7762 28.8652C42.8036 28.0925 41.6926 27.4948 40.4913 27.1096C38.1411 26.3561 35.5993 26.4654 33.3225 27.418C31.0458 28.3706 29.1834 30.1039 28.07 32.3065C26.9567 34.5092 26.6654 37.0366 27.2485 39.4348C27.8316 41.8329 29.2509 43.9444 31.2513 45.3899C33.2516 46.8355 35.702 47.5202 38.1619 47.321C40.6219 47.1219 42.9302 46.0519 44.672 44.3034C45.5623 43.4097 46.2748 42.3685 46.784 41.2356C47.5949 39.4312 49.2635 37.9052 51.2359 38.0573Z" fill="#C8FF7B"/>
<circle cx="37.1286" cy="36.7876" r="4.72824" fill="white"/>
</svg>
