<svg width="50" height="50" viewBox="0 0 50 50" fill="none" xmlns="http://www.w3.org/2000/svg">
<path d="M43.7624 31.6108C46.4226 32.5481 47.861 35.5039 46.4035 37.9187C44.2432 41.4977 41.2046 44.5024 37.5413 46.6267C32.3944 49.6114 26.3517 50.6627 20.4992 49.5915C14.6467 48.5204 9.36803 45.3971 5.61187 40.7829C1.8557 36.1687 -0.131715 30.3662 0.00677329 24.4181C0.145262 18.47 2.40057 12.7662 6.36741 8.33187C10.3343 3.89751 15.7525 1.02326 21.6486 0.22566C27.5446 -0.571945 33.5318 0.759382 38.5343 3.98039C42.0947 6.27293 44.9902 9.41577 46.9816 13.0914C48.3251 15.5714 46.7507 18.4571 44.0497 19.2696C41.3488 20.0821 38.5598 18.4647 36.8808 16.1983C35.8266 14.7752 34.5171 13.542 33.0047 12.5682C30.046 10.6632 26.505 9.87579 23.0178 10.3475C19.5307 10.8193 16.3261 12.5192 13.98 15.1418C11.6338 17.7645 10.3 21.1379 10.2181 24.6558C10.1362 28.1738 11.3116 31.6056 13.5331 34.3346C15.7547 37.0636 18.8767 38.9108 22.3381 39.5443C25.7995 40.1779 29.3733 39.5561 32.4174 37.7909C33.9735 36.8885 35.339 35.7175 36.4583 34.3451C38.241 32.1593 41.1022 30.6735 43.7624 31.6108Z" fill="#3A72FF"/>
<path d="M34.44 25.728C35.7784 25.8312 36.8038 27.0128 36.4312 28.3025C35.8789 30.2139 34.8521 31.9695 33.4297 33.3974C31.4312 35.4035 28.7828 36.6311 25.9603 36.8596C23.1379 37.0881 20.3265 36.3025 18.0313 34.644C15.7361 32.9855 14.1077 30.5628 13.4387 27.8112C12.7697 25.0597 13.1039 22.1598 14.3813 19.6326C15.6587 17.1054 17.7955 15.1166 20.4078 14.0237C23.0201 12.9307 25.9365 12.8052 28.633 13.6698C30.5522 14.2851 32.2704 15.3733 33.6387 16.8177C34.5618 17.7923 34.1935 19.3129 33.0519 20.0191C31.9103 20.7253 30.4289 20.3253 29.3779 19.4902C28.7179 18.9659 27.964 18.5603 27.1488 18.2989C25.554 17.7876 23.8291 17.8618 22.2841 18.5082C20.7391 19.1546 19.4753 20.3308 18.7198 21.8255C17.9643 23.3202 17.7666 25.0353 18.1623 26.6627C18.558 28.29 19.5211 29.7229 20.8785 30.7038C22.236 31.6848 23.8988 32.1494 25.5681 32.0143C27.2374 31.8791 28.8038 31.1531 29.9858 29.9666C30.59 29.36 31.0735 28.6535 31.419 27.8847C31.9693 26.6603 33.1016 25.6248 34.44 25.728Z" fill="#76DA69"/>
</svg>
